# xmcd
#
# Track frame offsets:
#	150
#	11940
#	27687
#	42600
#	62400
#	82002
#	96055
#	110017
#	126085
#	137382
#	150382
#	175627
#	191982
#
# Disc length: 2837 seconds
# Revision: 5
# Processed by: cddbd v1.5.2PL0 Copyright (c) Steve Scherf et al.
# Submitted via: dBpowerAMP V12.0
#
DISCID=a50b130d,af0b130d
DTITLE=Peps Persson - Rotblos
DYEAR=1997
DGENRE=Blues
TTITLE0=För Ung Att Dö
TTITLE1=Pistol Blues
TTITLE2=Min Trollmoj Funkar
TTITLE3=Främlingsblues
TTITLE4=Nå't Inuti Mej
TTITLE5=Passa Dig
TTITLE6=Go'maren Lilla Skoltös
TTITLE7=Snälla du Kom Hem
TTITLE8=Låt Inte Mej Snacka
TTITLE9=Skaka Kassaskrinet
TTITLE10=Ba'na Om Vatten
TTITLE11=Säg Mej, Kvinna
TTITLE12=Gunga Med Mej
EXTD=
EXTT0=
EXTT1=
EXTT2=
EXTT3=
EXTT4=
EXTT5=
EXTT6=
EXTT7=
EXTT8=
EXTT9=
EXTT10=
EXTT11=
EXTT12=
PLAYORDER=
